<?xml version="1.0" standalone="no"?>
<!DOCTYPE svg PUBLIC "-//W3C//DTD SVG 20010904//EN"
 "http://www.w3.org/TR/2001/REC-SVG-20010904/DTD/svg10.dtd">
<svg version="1.0" xmlns="http://www.w3.org/2000/svg"
 width="5414.000000pt" height="6144.000000pt" viewBox="0 0 5414.000000 6144.000000"
 preserveAspectRatio="xMidYMid meet">

<g transform="translate(0.000000,6144.000000) scale(0.100000,-0.100000)"
fill="#000000" stroke="none">
<path d="M19715 35800 c-16 -4 -66 -15 -110 -25 -158 -34 -315 -144 -432 -300
-75 -100 -93 -126 -93 -131 0 -8 -92 -158 -101 -164 -4 -3 -19 -30 -34 -60
-14 -30 -30 -63 -36 -72 -16 -31 -26 -51 -69 -138 -81 -162 -87 -175 -94 -204
-4 -17 -15 -41 -25 -55 -9 -14 -25 -46 -36 -71 -10 -25 -26 -63 -36 -86 -11
-22 -19 -47 -19 -55 0 -8 -7 -27 -16 -44 -9 -16 -26 -62 -39 -101 -12 -39 -29
-86 -37 -105 -60 -135 -201 -696 -214 -849 -3 -25 -7 -74 -10 -110 -2 -36 -9
-74 -14 -85 -9 -20 -18 -176 -26 -428 -2 -76 -9 -147 -14 -157 -12 -22 -12
-470 0 -485 4 -5 11 -50 15 -100 3 -49 8 -111 10 -136 3 -25 20 -85 39 -132
28 -70 51 -106 123 -190 48 -57 102 -113 118 -125 36 -24 152 -44 215 -35 153
21 323 204 425 457 43 106 51 137 75 296 10 69 28 176 39 238 11 62 25 156 31
210 5 53 14 131 19 172 13 101 14 387 1 395 -5 3 -10 20 -10 36 0 35 -76 226
-126 316 -52 94 -110 161 -160 185 -44 22 -45 22 -77 4 -17 -10 -52 -38 -77
-61 -57 -54 -117 -95 -141 -95 -32 0 -77 49 -100 108 -19 50 -21 71 -16 168 5
96 10 121 36 182 17 39 31 77 31 84 0 17 44 150 64 193 8 17 23 57 35 90 36
108 51 146 66 168 15 24 71 129 159 301 31 60 60 114 65 120 4 6 23 38 41 71
46 83 92 137 164 192 83 62 167 100 252 113 88 14 149 -3 226 -61 47 -35 158
-179 158 -205 0 -6 13 -29 29 -51 16 -22 32 -55 36 -74 4 -19 13 -45 21 -59
22 -43 80 -242 93 -320 7 -41 15 -84 17 -95 11 -45 27 -396 29 -625 2 -152 7
-258 14 -280 8 -24 11 -141 9 -385 -1 -192 1 -406 6 -475 8 -113 6 -141 -18
-290 -79 -485 -79 -491 -65 -570 12 -67 11 -73 -19 -167 -21 -68 -37 -154 -52
-278 -12 -99 -28 -211 -36 -250 -18 -93 -72 -384 -84 -460 -5 -33 -12 -103
-16 -155 -3 -52 -19 -158 -34 -235 -16 -77 -32 -165 -35 -195 -14 -122 -28
-200 -55 -295 -31 -108 -50 -196 -75 -345 -20 -122 -30 -168 -72 -320 -19 -69
-47 -183 -63 -253 -28 -124 -215 -643 -325 -902 -23 -55 -64 -154 -90 -220
-50 -126 -169 -385 -227 -495 -19 -36 -49 -101 -67 -145 -18 -44 -77 -168
-130 -275 -53 -107 -106 -217 -118 -245 -12 -27 -40 -90 -63 -140 -23 -49 -65
-160 -95 -245 -29 -85 -62 -180 -74 -211 -45 -123 -145 -316 -254 -491 -63
-100 -131 -214 -152 -253 -21 -38 -66 -108 -100 -155 -35 -47 -73 -103 -86
-125 -12 -22 -46 -76 -74 -120 -29 -44 -67 -107 -85 -140 -18 -33 -58 -96 -89
-140 -61 -86 -172 -264 -241 -385 -23 -41 -68 -111 -100 -155 -62 -86 -132
-195 -189 -290 l-36 -60 0 -160 c0 -107 -4 -172 -13 -197 -7 -21 -12 -47 -10
-58 2 -18 9 -14 39 27 20 26 81 100 135 163 55 64 162 198 239 300 77 101 165
211 196 245 30 33 77 89 102 125 61 84 155 206 235 306 35 43 91 122 124 174
33 52 83 130 111 172 29 43 64 97 79 120 14 24 51 72 82 107 30 34 70 87 88
117 18 30 57 88 85 129 29 41 64 98 79 127 14 28 48 86 74 129 27 42 67 114
90 160 23 45 73 128 110 183 175 263 388 619 458 767 105 222 197 407 231 463
21 33 59 101 85 150 27 49 61 111 77 138 16 27 29 51 29 55 0 3 18 46 41 97
64 142 66 147 94 216 15 36 38 99 52 140 65 196 91 263 146 368 32 63 73 155
92 205 36 100 76 195 123 297 26 58 143 398 162 475 5 17 19 62 33 100 13 39
30 90 37 115 7 25 21 72 31 105 10 33 30 103 45 155 15 52 31 100 36 106 4 6
10 38 13 70 2 32 9 75 15 94 20 62 48 203 55 275 4 39 13 104 22 145 8 41 19
118 24 170 5 52 13 118 18 145 31 159 63 352 71 430 6 50 17 149 26 220 27
237 45 408 54 535 6 69 15 161 20 205 5 44 12 134 15 200 4 66 12 167 20 225
16 130 11 772 -7 835 -6 22 -13 90 -14 150 -4 174 -29 469 -54 645 -6 41 -15
118 -20 170 -5 52 -14 115 -20 140 -6 25 -22 113 -36 195 -29 174 -36 204 -57
265 -9 25 -25 74 -36 110 -41 137 -114 307 -159 370 -46 65 -214 238 -288 296
-21 17 -73 49 -115 72 -66 36 -89 43 -170 52 -109 11 -231 12 -274 0z"/>
<path d="M21481 34679 c-130 -58 -232 -204 -298 -428 -30 -103 -48 -224 -63
-426 -24 -317 24 -566 132 -677 54 -55 78 -60 145 -27 47 23 91 76 146 179 86
160 155 436 143 570 -4 36 -2 81 4 100 7 23 6 97 -1 230 -11 206 -29 343 -51
384 -15 28 -96 116 -106 115 -4 0 -27 -9 -51 -20z"/>
<path d="M22677 34593 c-12 -12 -17 -14 -17 -4 0 9 -7 11 -22 6 -13 -4 -57
-11 -98 -15 -108 -11 -125 -15 -158 -36 -88 -56 -141 -106 -193 -185 -72 -109
-79 -127 -79 -207 0 -59 5 -77 45 -157 73 -145 186 -286 274 -342 71 -46 217
-125 311 -169 205 -97 478 -246 541 -295 26 -22 61 -47 77 -56 47 -29 268
-221 366 -318 50 -49 109 -115 131 -145 21 -30 54 -71 73 -90 19 -19 43 -54
53 -76 10 -23 26 -48 36 -55 49 -41 90 -221 104 -462 7 -117 7 -189 0 -210 -5
-18 -12 -54 -16 -82 -16 -127 -74 -292 -135 -382 -17 -24 -30 -48 -30 -53 0
-5 -6 -13 -13 -17 -8 -4 -32 -33 -54 -63 -85 -116 -280 -270 -441 -350 -67
-32 -214 -93 -292 -120 -59 -20 -318 -34 -370 -19 -14 4 -72 13 -130 19 -58 7
-109 17 -114 21 -6 5 -25 9 -42 9 -18 0 -36 5 -39 10 -9 14 -45 12 -45 -2 -1
-9 -5 -8 -13 3 -8 10 -36 18 -77 23 -36 3 -114 17 -175 29 -94 20 -128 22
-235 17 -117 -6 -129 -9 -183 -39 -48 -28 -62 -42 -87 -91 -24 -48 -30 -75
-36 -161 -6 -97 -5 -108 20 -170 14 -36 26 -70 26 -76 0 -31 53 -106 119 -168
67 -63 99 -91 226 -187 22 -17 68 -43 103 -59 34 -16 92 -49 128 -75 36 -25
142 -82 237 -125 95 -44 186 -86 202 -94 47 -22 145 -64 153 -65 9 -1 110 -47
145 -66 15 -8 27 -12 27 -9 0 4 13 -3 29 -14 16 -12 34 -21 40 -21 6 0 47 -18
91 -40 44 -22 87 -40 96 -40 9 0 28 -8 42 -19 15 -10 63 -37 107 -61 44 -23
86 -47 94 -53 14 -12 85 -50 196 -105 33 -17 74 -45 90 -62 17 -18 53 -49 80
-70 90 -69 353 -337 453 -462 23 -29 58 -72 77 -94 19 -23 35 -47 35 -53 0 -7
19 -40 42 -74 47 -68 109 -182 164 -297 19 -41 41 -79 48 -85 17 -13 92 -182
107 -239 6 -26 15 -49 20 -52 5 -3 9 -14 9 -24 0 -11 8 -34 19 -53 10 -18 26
-78 36 -133 9 -54 20 -110 25 -124 5 -14 11 -48 13 -76 3 -28 13 -66 22 -83
21 -41 39 -192 30 -256 -4 -27 -6 -70 -6 -95 1 -25 -3 -76 -9 -115 -6 -38 -12
-110 -15 -158 -2 -48 -8 -93 -12 -99 -4 -7 -10 -90 -15 -186 -4 -107 -12 -179
-19 -188 -6 -8 -11 -33 -11 -57 0 -23 -6 -57 -15 -75 -8 -19 -12 -43 -9 -55 3
-11 0 -29 -5 -39 -6 -11 -14 -57 -19 -103 -8 -77 -24 -130 -71 -230 -10 -22
-21 -58 -25 -80 -8 -51 -39 -171 -53 -209 -7 -16 -10 -31 -7 -33 6 -6 -80
-167 -120 -224 -20 -29 -47 -72 -61 -98 -59 -106 -93 -174 -93 -185 0 -13 -36
-84 -84 -168 -14 -27 -24 -48 -21 -48 3 0 -2 -11 -10 -24 -9 -13 -15 -28 -13
-32 1 -5 -4 -20 -11 -32 -7 -14 -12 -49 -11 -80 1 -32 1 -59 0 -62 -5 -12 -8
-126 -3 -134 3 -4 7 -25 8 -45 2 -20 12 -54 24 -74 12 -21 21 -46 21 -56 0
-10 3 -21 7 -25 4 -3 8 -13 9 -22 3 -21 74 -137 158 -257 61 -87 83 -109 152
-157 45 -30 120 -82 168 -114 47 -32 86 -65 86 -73 0 -7 5 -13 11 -13 6 0 33
-18 59 -40 26 -22 53 -40 60 -40 11 0 112 -71 130 -90 3 -4 22 -14 43 -24 20
-9 35 -21 32 -26 -3 -4 15 -20 40 -34 25 -15 106 -69 180 -121 75 -52 140 -95
145 -95 8 0 65 -35 95 -57 6 -5 22 -14 38 -22 15 -8 27 -18 27 -23 0 -4 5 -8
12 -8 6 0 26 -11 44 -25 18 -14 39 -25 47 -25 8 0 20 -7 27 -15 7 -8 18 -15
25 -15 6 0 20 -9 30 -20 10 -11 22 -20 27 -20 5 0 49 -27 98 -60 49 -33 111
-72 137 -86 26 -15 68 -38 93 -52 25 -13 56 -32 70 -42 14 -10 54 -32 90 -50
36 -18 76 -40 90 -50 14 -9 41 -23 60 -30 19 -8 54 -26 77 -42 23 -15 44 -28
48 -28 4 0 26 -13 50 -30 24 -16 47 -30 50 -30 4 0 25 -15 48 -33 23 -19 76
-49 117 -69 41 -19 122 -63 178 -96 57 -34 105 -62 107 -62 2 0 45 -24 97 -54
142 -82 428 -226 448 -226 10 0 23 -7 30 -15 13 -16 65 -41 173 -86 32 -13
109 -47 170 -75 83 -39 113 -48 115 -38 4 16 22 19 22 5 0 -11 55 -52 73 -55
7 -1 22 -8 35 -14 12 -7 45 -16 73 -19 27 -3 52 -10 55 -14 3 -5 33 -9 67 -9
34 0 78 -4 97 -10 24 -7 36 -6 41 2 6 9 11 9 22 -1 12 -9 16 -9 20 1 4 10 7
11 18 1 15 -15 55 -17 63 -4 3 4 17 6 31 3 29 -5 62 6 165 56 104 51 209 154
239 236 12 33 31 72 42 88 12 16 22 34 23 41 2 7 8 26 16 42 7 17 16 39 21 50
12 31 22 190 14 237 -7 39 -25 61 -189 227 -165 167 -265 251 -299 251 -7 0
-23 9 -35 20 -12 11 -25 20 -30 20 -4 0 -17 8 -28 18 -10 9 -32 24 -49 32 -16
7 -43 26 -60 41 -29 27 -99 69 -255 151 -41 22 -93 54 -114 71 -22 17 -67 44
-100 61 -102 52 -335 227 -436 328 -95 94 -220 257 -220 286 0 5 -13 21 -30
37 -16 16 -30 32 -30 36 0 5 -13 28 -30 52 -16 25 -30 49 -30 55 0 5 -7 15
-15 22 -9 7 -25 34 -37 59 -11 25 -26 53 -33 61 -19 23 -69 121 -70 140 -1 9
-16 31 -33 50 -18 18 -32 43 -32 56 0 13 -5 26 -10 29 -6 4 -8 10 -5 15 7 11
-33 120 -53 143 -8 9 -13 20 -10 23 6 5 -20 88 -47 149 -51 119 -77 243 -100
480 -8 84 -10 425 -3 427 4 2 2 36 -4 77 -11 74 -2 167 23 249 6 18 12 42 13
55 2 12 8 33 14 47 5 14 18 58 27 99 9 41 23 84 31 95 8 11 14 33 14 48 0 15
5 30 10 33 6 4 10 14 9 23 -3 18 27 84 61 137 11 17 51 94 90 171 39 78 77
148 85 154 24 20 61 116 57 146 -1 5 6 19 16 30 9 10 28 40 41 67 13 26 28 47
33 47 4 0 8 5 8 12 0 6 33 46 73 88 110 117 206 257 192 280 -3 5 -1 11 5 15
15 9 13 205 -2 238 -7 15 -16 27 -20 27 -5 0 -8 13 -8 28 0 18 -11 38 -30 57
-16 16 -30 34 -30 40 0 17 -90 100 -140 128 -25 14 -61 42 -80 63 -19 20 -62
54 -95 77 -33 22 -81 58 -106 79 -25 21 -49 38 -54 38 -4 0 -34 9 -66 21 -40
15 -81 42 -136 91 -68 61 -158 118 -186 118 -5 0 -32 15 -60 33 -50 32 -129
77 -246 139 -30 16 -84 47 -120 68 -36 22 -102 54 -146 71 -88 36 -132 61
-218 125 -31 24 -66 44 -77 44 -12 0 -23 6 -26 14 -3 8 -18 18 -34 21 -28 6
-207 109 -303 174 -26 18 -54 34 -62 35 -8 1 -22 9 -32 17 -10 9 -74 47 -143
84 -69 37 -175 101 -235 140 -61 40 -130 82 -155 95 -71 36 -261 159 -305 197
-32 28 -216 154 -304 208 -33 20 -107 81 -158 129 -40 37 -53 56 -53 77 0 23
4 29 22 29 12 0 29 -7 39 -16 11 -10 41 -18 76 -20 36 -2 87 -15 133 -35 72
-30 80 -31 215 -31 151 0 225 8 238 26 6 8 10 8 14 -1 2 -7 13 -13 23 -13 10
0 20 6 23 13 4 10 7 10 18 0 17 -17 55 -16 71 0 6 8 22 12 34 9 12 -2 35 3 51
12 15 9 91 39 168 65 245 85 367 149 440 231 11 12 49 39 85 60 95 57 288 250
328 328 17 34 33 77 37 95 4 17 18 64 31 104 18 50 26 100 29 172 3 69 11 119
25 158 20 55 21 73 16 338 -2 154 -9 314 -14 355 -24 166 -43 255 -76 348 -14
41 -26 88 -26 106 0 18 -4 36 -9 42 -4 5 -20 41 -35 79 -15 39 -48 104 -73
145 -25 41 -69 115 -97 164 -28 48 -76 117 -108 153 -31 35 -63 78 -72 96 -31
66 -131 180 -286 327 -72 69 -184 176 -249 238 -64 61 -121 112 -127 112 -5 0
-31 23 -59 50 -27 28 -55 50 -62 50 -7 0 -16 6 -20 14 -4 7 -24 21 -43 31 -49
25 -176 111 -230 155 -25 21 -73 54 -107 74 -34 20 -68 42 -75 49 -22 21 -270
137 -293 137 -8 0 -15 4 -15 10 0 13 -58 42 -70 35 -6 -3 -10 -2 -10 4 0 22
-44 42 -300 132 -30 10 -68 25 -85 33 -61 29 -212 86 -270 102 -32 9 -103 36
-156 60 -53 24 -108 44 -122 44 -15 0 -43 10 -64 21 -77 44 -231 102 -328 125
-120 28 -136 29 -158 7z"/>
<path d="M21088 31212 c-20 -22 -55 -77 -78 -123 -23 -46 -46 -89 -50 -94 -5
-6 -29 -74 -55 -150 -31 -95 -47 -162 -49 -210 -3 -38 -10 -101 -18 -140 -23
-124 -9 -465 24 -579 25 -85 103 -205 146 -225 28 -13 82 -14 115 -2 28 11 61
44 114 116 40 54 135 317 148 410 4 28 13 70 20 95 18 62 38 320 36 460 -1 75
-8 137 -20 180 -10 36 -24 89 -31 119 -15 62 -44 122 -75 151 -16 15 -41 21
-106 26 l-84 7 -37 -41z"/>
</g>
</svg>
